HIERARCHY
ROOT Hips
{
	OFFSET 0.000000 0.000000 0.000000
	CHANNELS 6 Xposition Yposition Zposition Xrotation Yrotation Zrotation
	JOINT LeftUpLeg_virtual
	{
		OFFSET 0.000000 0.000000 0.000000
		CHANNELS 3 Xrotation Yrotation Zrotation
		JOINT LeftUpLeg
		{
			OFFSET 10.205400 -3.823500 0.155100
			CHANNELS 3 Xrotation Yrotation Zrotation
			JOINT LeftLeg
			{
				OFFSET 0.708757 -12.982077 0.567790
				CHANNELS 3 Xrotation Yrotation Zrotation
				JOINT LeftFoot
				{
					OFFSET -0.708756 -10.717838 -2.184338
					CHANNELS 3 Xrotation Yrotation Zrotation
					JOINT LeftToeBase
					{
						OFFSET 0.108149 -7.191104 7.560241
						CHANNELS 3 Xrotation Yrotation Zrotation
						JOINT LeftToe_End
						{
							OFFSET 0.070230 0.081724 4.490308
							CHANNELS 3 Xrotation Yrotation Zrotation
							End Site
							{
								OFFSET 0 0 0
							}
						}
					}
				}
			}
		}
	}
	JOINT RightUpLeg_virtual
	{
		OFFSET 0.000000 0.000000 0.000000
		CHANNELS 3 Xrotation Yrotation Zrotation
		JOINT RightUpLeg
		{
			OFFSET -10.205400 -3.823500 0.005500
			CHANNELS 3 Xrotation Yrotation Zrotation
			JOINT RightLeg
			{
				OFFSET -0.708756 -12.982134 0.610632
				CHANNELS 3 Xrotation Yrotation Zrotation
				JOINT RightFoot
				{
					OFFSET 0.708754 -10.717769 -1.945823
					CHANNELS 3 Xrotation Yrotation Zrotation
					JOINT RightToeBase
					{
						OFFSET -0.108140 -7.191069 7.372968
						CHANNELS 3 Xrotation Yrotation Zrotation
						JOINT RightToe_End
						{
							OFFSET -0.070227 0.081735 4.479403
							CHANNELS 3 Xrotation Yrotation Zrotation
							End Site
							{
								OFFSET 0 0 0
							}
						}
					}
				}
			}
		}
	}
	JOINT Spine_virtual
	{
		OFFSET 0.000000 0.000000 0.000000
		CHANNELS 3 Xrotation Yrotation Zrotation
		JOINT Spine
		{
			OFFSET 0.000000 6.876099 0.125700
			CHANNELS 3 Xrotation Yrotation Zrotation
			JOINT Spine1
			{
				OFFSET 0.000000 5.730043 0.104720
				CHANNELS 3 Xrotation Yrotation Zrotation
				JOINT Spine1_split
				{
					OFFSET 0.000000 5.730043 0.104720
					CHANNELS 3 Xrotation Yrotation Zrotation
					JOINT Spine2
					{
						OFFSET 0.000000 5.730043 0.104720
						CHANNELS 3 Xrotation Yrotation Zrotation
						JOINT Neck_virtual
						{
							OFFSET 0.000000 0.000000 0.000000
							CHANNELS 3 Xrotation Yrotation Zrotation
							JOINT Neck
							{
								OFFSET 0.000000 10.314075 0.188496
								CHANNELS 3 Xrotation Yrotation Zrotation
								JOINT Head
								{
									OFFSET 0.000000 7.643700 -2.377400
									CHANNELS 3 Xrotation Yrotation Zrotation
									JOINT HeadTop_End
									{
										OFFSET 0.000000 43.788605 -13.619600
										CHANNELS 3 Xrotation Yrotation Zrotation
										End Site
										{
											OFFSET 0 0 0
										}
									}
								}
							}
						}
						JOINT LeftShoulder_virtual
						{
							OFFSET 0.000000 0.000000 0.000000
							CHANNELS 3 Xrotation Yrotation Zrotation
							JOINT LeftShoulder
							{
								OFFSET 2.196100 4.412489 0.087492
								CHANNELS 3 Xrotation Yrotation Zrotation
								JOINT LeftShoulder_split
								{
									OFFSET 2.196100 4.412489 0.087492
									CHANNELS 3 Xrotation Yrotation Zrotation
									JOINT LeftArm
									{
										OFFSET 8.771219 -2.981674 -0.026999
										CHANNELS 3 Xrotation Yrotation Zrotation
										JOINT LeftForeArm
										{
											OFFSET 8.512804 0.000000 -0.000000
											CHANNELS 3 Xrotation Yrotation Zrotation
											JOINT LeftHand
											{
												OFFSET 18.484802 0.000000 -0.000000
												CHANNELS 3 Xrotation Yrotation Zrotation
												End Site
												{
													OFFSET 0 0 0
												}
											}
										}
									}
								}
							}
						}
						JOINT RightShoulder_virtual
						{
							OFFSET 0.000000 0.000000 0.000000
							CHANNELS 3 Xrotation Yrotation Zrotation
							JOINT RightShoulder
							{
								OFFSET -2.196100 4.412496 0.070690
								CHANNELS 3 Xrotation Yrotation Zrotation
								JOINT RightShoulder_split
								{
									OFFSET -2.196100 4.412496 0.070690
									CHANNELS 3 Xrotation Yrotation Zrotation
									JOINT RightArm
									{
										OFFSET -8.771282 -2.981682 -0.094208
										CHANNELS 3 Xrotation Yrotation Zrotation
										JOINT RightForeArm
										{
											OFFSET -8.494598 0.000000 0.000000
											CHANNELS 3 Xrotation Yrotation Zrotation
											JOINT RightHand
											{
												OFFSET -18.483803 0.000000 0.000001
												CHANNELS 3 Xrotation Yrotation Zrotation
												End Site
												{
													OFFSET 0 0 0
												}
											}
										}
									}
								}
							}
						}
					}
				}
			}
		}
	}
}
MOTION
Frames: 4
Frame Time: 0.03333333
1.225369 30.887079 1.406195 0.000000 0.000000 0.000000 -2.351922 -49.337028 -4.062433 -29.052712 4.251088 17.438675 41.351130 -16.488691 2.207610 -14.246939 -2.960804 -8.572918 -2.176122 -2.701920 2.151580 0.000000 0.000000 0.000000 -3.021966 -46.755138 -3.470751 5.419856 -1.666921 -16.189118 25.143562 -10.472279 -0.516489 -30.506360 -6.570423 23.362551 -3.683600 0.224623 2.149282 0.000000 0.000000 0.000000 -5.015066 -48.539631 -4.755508 10.936107 7.151913 0.625469 10.948873 9.751677 -4.023396 -0.986251 1.807755 0.596284 0.000000 0.000000 0.000000 12.201079 9.541580 -4.753678 -17.070270 -3.391583 2.944571 2.195409 23.346471 -5.891946 0.000000 0.000000 0.000000 13.594202 8.855710 -3.535722 0.537726 -2.586009 -10.052866 0.780169 1.574588 2.915041 -11.360018 -4.981689 -58.337930 8.685908 -58.830127 -0.436280 0.000000 0.000000 0.000000 10.475996 9.723473 -3.130172 1.167703 17.027728 6.263265 3.541476 -0.000074 2.038320 -18.746071 -21.836900 69.032613 3.514515 47.920932 -2.628386 0.000000 0.000000 0.000000 
1.832685 30.861565 0.969007 0.000000 0.000000 0.000000 -0.027714 -50.629843 -2.504212 -31.316868 2.041544 18.027717 40.984212 -15.621141 1.816410 -13.089137 -2.486712 -7.146795 -1.077380 -2.593099 1.946815 0.000000 0.000000 0.000000 -1.345999 -47.118593 -2.362049 3.868153 -2.044491 -17.344762 27.595701 -9.683514 -0.425505 -30.532739 -6.171354 24.019808 -1.241046 -0.096568 2.048222 0.000000 0.000000 0.000000 -2.872209 -49.456064 -3.292551 10.897559 7.376757 0.717628 11.232349 9.550185 -3.992694 -0.295644 0.650999 1.322778 0.000000 0.000000 0.000000 12.613731 9.375582 -4.785624 -16.997141 -2.184520 3.430887 1.680800 24.594295 -6.289400 0.000000 0.000000 0.000000 13.750671 8.632207 -3.750733 0.249096 -3.759761 -8.895235 -0.768168 -1.440048 0.248437 -11.875907 -3.905140 -57.780689 6.163330 -52.605393 -1.721948 0.000000 0.000000 0.000000 10.498876 9.583398 -3.241860 0.721076 16.969381 6.580909 4.940466 0.111061 1.927414 -16.209465 -21.691207 68.923890 3.074962 50.402288 -2.388074 0.000000 0.000000 0.000000 
2.615715 30.395216 0.216118 0.000000 0.000000 0.000000 3.480867 -51.422698 0.784921 -37.202558 -0.780990 17.684251 42.233382 -13.567349 1.427461 -11.595619 -0.556153 -6.821835 0.599713 -2.332938 1.272089 0.000000 0.000000 0.000000 1.882531 -47.449413 0.483830 -2.810631 -1.220805 -19.585887 33.754754 -9.080277 -0.224913 -29.801082 -5.656194 24.603361 0.302431 -0.384522 1.401252 0.000000 0.000000 0.000000 1.119273 -50.150896 0.218001 10.945857 7.421595 0.495806 11.818783 9.081091 -4.011479 -0.034041 -0.563614 0.926220 0.000000 0.000000 0.000000 13.434496 8.823547 -4.895395 -18.547254 -1.052546 4.594524 0.345603 26.993538 -7.019100 0.000000 0.000000 0.000000 14.052069 8.128485 -4.032244 -0.221866 -5.401624 -7.092484 -2.499854 -4.849033 -2.846578 -12.988936 -7.100298 -55.532754 7.471380 -45.053062 0.014756 0.000000 0.000000 0.000000 10.961342 9.108984 -3.448004 -0.093834 16.769800 7.184037 5.440396 1.111261 1.923913 -13.527628 -19.857518 67.250343 1.892446 52.602869 -1.506938 0.000000 0.000000 0.000000 
3.425864 29.553173 -0.726833 0.000000 0.000000 0.000000 8.252289 -51.536161 5.638956 -45.681712 -3.581263 15.558508 45.560101 -10.974123 1.281361 -9.632195 2.200616 -8.765390 1.603311 -1.971404 0.430447 0.000000 0.000000 0.000000 6.411229 -48.072323 5.003912 -13.846965 0.942667 -22.660964 43.045105 -8.696851 -0.052293 -28.956293 -4.888895 24.505715 1.125350 -0.652638 0.389962 0.000000 0.000000 0.000000 6.786587 -50.244582 5.589418 10.865295 7.246330 -0.049280 12.577562 8.340943 -4.024675 -0.757318 -1.851676 0.464172 0.000000 0.000000 0.000000 14.425177 8.011731 -4.986086 -21.519978 -0.037420 6.114756 -1.126420 30.122166 -7.925343 0.000000 0.000000 0.000000 14.447679 7.398879 -4.231486 -0.774005 -6.920533 -5.425078 -3.197584 -6.763822 -5.556431 -15.376252 -12.741203 -52.316568 10.132232 -38.374301 2.531883 0.000000 0.000000 0.000000 11.818710 8.319304 -3.686131 -1.094410 16.671356 8.229779 4.815633 2.985177 2.232950 -11.136543 -16.555231 64.189995 0.057942 53.727774 0.130112 0.000000 0.000000 0.000000 
